<mxfile host="app.diagrams.net" modified="2022-02-15T15:11:50.156Z" agent="5.0 (Macintosh; Intel Mac OS X 10_15_7) AppleWebKit/537.36 (KHTML, like Gecko) Chrome/98.0.4758.80 Safari/537.36" etag="kBcRijJj_JYOjeCllTRm" version="16.5.6" type="github">
  <diagram name="Page-1" id="e7e014a7-5840-1c2e-5031-d8a46d1fe8dd">
    <mxGraphModel dx="1240" dy="690" grid="1" gridSize="10" guides="1" tooltips="1" connect="1" arrows="1" fold="1" page="1" pageScale="1" pageWidth="1169" pageHeight="826" background="none" math="0" shadow="0">
      <root>
        <object label="" other="" id="0">
          <mxCell />
        </object>
        <mxCell id="1" parent="0" />
        <mxCell id="ssKL7-adrF8DjpuyPg4L-67" value="SoundBed" style="shape=umlLifeline;perimeter=lifelinePerimeter;container=1;collapsible=0;recursiveResize=0;rounded=0;shadow=0;strokeWidth=1;fontSize=14;" vertex="1" parent="1">
          <mxGeometry x="130" y="90" width="100" height="630" as="geometry" />
        </mxCell>
        <mxCell id="ssKL7-adrF8DjpuyPg4L-68" value="" style="points=[];perimeter=orthogonalPerimeter;rounded=0;shadow=0;strokeWidth=1;fontSize=14;" vertex="1" parent="ssKL7-adrF8DjpuyPg4L-67">
          <mxGeometry x="45" y="180" width="10" height="420" as="geometry" />
        </mxCell>
        <mxCell id="ssKL7-adrF8DjpuyPg4L-93" value="" style="points=[];perimeter=orthogonalPerimeter;rounded=0;shadow=0;strokeWidth=1;fontSize=14;" vertex="1" parent="ssKL7-adrF8DjpuyPg4L-67">
          <mxGeometry x="45" y="110" width="10" height="20" as="geometry" />
        </mxCell>
        <mxCell id="ssKL7-adrF8DjpuyPg4L-94" value="userId" style="verticalAlign=bottom;endArrow=block;shadow=0;strokeWidth=1;fontSize=14;" edge="1" parent="ssKL7-adrF8DjpuyPg4L-67">
          <mxGeometry relative="1" as="geometry">
            <mxPoint x="226" y="116" as="sourcePoint" />
            <mxPoint x="55" y="115.99999999999989" as="targetPoint" />
            <Array as="points">
              <mxPoint x="111.27000000000001" y="116" />
            </Array>
          </mxGeometry>
        </mxCell>
        <mxCell id="ssKL7-adrF8DjpuyPg4L-110" value="confirm journey&#xa; set journey Id" style="verticalAlign=bottom;endArrow=block;shadow=0;strokeWidth=1;fontSize=14;" edge="1" parent="ssKL7-adrF8DjpuyPg4L-67">
          <mxGeometry relative="1" as="geometry">
            <mxPoint x="229.49999999999977" y="249.9999999999999" as="sourcePoint" />
            <mxPoint x="55.000769230769265" y="249.9999999999999" as="targetPoint" />
            <Array as="points">
              <mxPoint x="115.26999999999998" y="250" />
            </Array>
          </mxGeometry>
        </mxCell>
        <mxCell id="ssKL7-adrF8DjpuyPg4L-113" value="" style="points=[];perimeter=orthogonalPerimeter;rounded=0;shadow=0;strokeWidth=1;fontSize=14;" vertex="1" parent="ssKL7-adrF8DjpuyPg4L-67">
          <mxGeometry x="50" y="290" width="10" height="110" as="geometry" />
        </mxCell>
        <mxCell id="ssKL7-adrF8DjpuyPg4L-71" value="mobile app" style="shape=umlLifeline;perimeter=lifelinePerimeter;container=1;collapsible=0;recursiveResize=0;rounded=0;shadow=0;strokeWidth=1;fontSize=14;" vertex="1" parent="1">
          <mxGeometry x="310" y="90" width="100" height="630" as="geometry" />
        </mxCell>
        <mxCell id="ssKL7-adrF8DjpuyPg4L-72" value="" style="points=[];perimeter=orthogonalPerimeter;rounded=0;shadow=0;strokeWidth=1;fontSize=14;" vertex="1" parent="ssKL7-adrF8DjpuyPg4L-71">
          <mxGeometry x="45" y="70" width="10" height="530" as="geometry" />
        </mxCell>
        <mxCell id="ssKL7-adrF8DjpuyPg4L-114" value="Joruney status busy " style="verticalAlign=bottom;endArrow=block;entryX=0;entryY=0;shadow=0;strokeWidth=1;fontSize=14;" edge="1" parent="ssKL7-adrF8DjpuyPg4L-71">
          <mxGeometry relative="1" as="geometry">
            <mxPoint x="-120" y="337" as="sourcePoint" />
            <mxPoint x="44.99999999999977" y="337.0000000000001" as="targetPoint" />
          </mxGeometry>
        </mxCell>
        <mxCell id="ssKL7-adrF8DjpuyPg4L-131" value="select next track" style="verticalAlign=bottom;endArrow=block;shadow=0;strokeWidth=1;fontSize=14;" edge="1" parent="ssKL7-adrF8DjpuyPg4L-71">
          <mxGeometry relative="1" as="geometry">
            <mxPoint x="45" y="460.29999999999995" as="sourcePoint" />
            <mxPoint x="-120" y="460" as="targetPoint" />
            <Array as="points">
              <mxPoint x="-69.93" y="460.29999999999995" />
            </Array>
          </mxGeometry>
        </mxCell>
        <mxCell id="ssKL7-adrF8DjpuyPg4L-75" value="backend" style="shape=umlLifeline;perimeter=lifelinePerimeter;container=1;collapsible=0;recursiveResize=0;rounded=0;shadow=0;strokeWidth=1;fontSize=14;" vertex="1" parent="1">
          <mxGeometry x="490" y="90" width="100" height="630" as="geometry" />
        </mxCell>
        <mxCell id="ssKL7-adrF8DjpuyPg4L-76" value="" style="points=[];perimeter=orthogonalPerimeter;rounded=0;shadow=0;strokeWidth=1;fontSize=14;" vertex="1" parent="ssKL7-adrF8DjpuyPg4L-75">
          <mxGeometry x="45" y="70" width="10" height="530" as="geometry" />
        </mxCell>
        <mxCell id="ssKL7-adrF8DjpuyPg4L-77" value="login" style="verticalAlign=bottom;endArrow=block;entryX=0;entryY=0;shadow=0;strokeWidth=1;fontSize=14;" edge="1" parent="ssKL7-adrF8DjpuyPg4L-75">
          <mxGeometry relative="1" as="geometry">
            <mxPoint x="-125" y="80.00000000000011" as="sourcePoint" />
            <mxPoint x="45" y="80.00000000000011" as="targetPoint" />
          </mxGeometry>
        </mxCell>
        <mxCell id="ssKL7-adrF8DjpuyPg4L-79" value="user id" style="verticalAlign=bottom;endArrow=block;shadow=0;strokeWidth=1;fontSize=14;" edge="1" parent="1" source="ssKL7-adrF8DjpuyPg4L-76" target="ssKL7-adrF8DjpuyPg4L-71">
          <mxGeometry relative="1" as="geometry">
            <mxPoint x="375" y="180.0000000000001" as="sourcePoint" />
            <mxPoint x="545" y="180.0000000000001" as="targetPoint" />
            <Array as="points">
              <mxPoint x="420" y="190" />
            </Array>
          </mxGeometry>
        </mxCell>
        <mxCell id="ssKL7-adrF8DjpuyPg4L-80" value="BLE" style="text;html=1;align=center;verticalAlign=middle;resizable=0;points=[];autosize=1;strokeColor=none;fillColor=none;fontSize=14;" vertex="1" parent="1">
          <mxGeometry x="250" y="60" width="40" height="20" as="geometry" />
        </mxCell>
        <mxCell id="ssKL7-adrF8DjpuyPg4L-81" value="HTTPS" style="text;html=1;align=center;verticalAlign=middle;resizable=0;points=[];autosize=1;strokeColor=none;fillColor=none;fontSize=14;" vertex="1" parent="1">
          <mxGeometry x="425" y="60" width="60" height="20" as="geometry" />
        </mxCell>
        <mxCell id="ssKL7-adrF8DjpuyPg4L-96" value="customize journey: &#xa;select tags, genres, duration" style="verticalAlign=bottom;endArrow=block;shadow=0;strokeWidth=1;exitX=0.877;exitY=0.427;exitDx=0;exitDy=0;exitPerimeter=0;fontSize=14;" edge="1" parent="1">
          <mxGeometry relative="1" as="geometry">
            <mxPoint x="363.7700000000002" y="238.7800000000001" as="sourcePoint" />
            <mxPoint x="534.9999999999998" y="238.7800000000001" as="targetPoint" />
          </mxGeometry>
        </mxCell>
        <mxCell id="ssKL7-adrF8DjpuyPg4L-98" value="" style="edgeStyle=orthogonalEdgeStyle;rounded=0;orthogonalLoop=1;jettySize=auto;html=1;entryX=-0.015;entryY=0.115;entryDx=0;entryDy=0;entryPerimeter=0;fontSize=14;" edge="1" parent="1" target="ssKL7-adrF8DjpuyPg4L-100">
          <mxGeometry relative="1" as="geometry">
            <mxPoint x="544.9999999999998" y="249.9999999999999" as="sourcePoint" />
            <mxPoint x="569.9999999999998" y="249.9999999999999" as="targetPoint" />
            <Array as="points">
              <mxPoint x="545" y="259" />
            </Array>
          </mxGeometry>
        </mxCell>
        <mxCell id="ssKL7-adrF8DjpuyPg4L-99" value="New journey instance" style="swimlane;fontStyle=2;align=center;verticalAlign=top;childLayout=stackLayout;horizontal=1;startSize=26;horizontalStack=0;resizeParent=1;resizeLast=0;collapsible=1;marginBottom=0;rounded=0;shadow=0;strokeWidth=1;fontSize=14;" vertex="1" parent="1">
          <mxGeometry x="640" y="230" width="160" height="130" as="geometry">
            <mxRectangle x="230" y="140" width="160" height="26" as="alternateBounds" />
          </mxGeometry>
        </mxCell>
        <mxCell id="ssKL7-adrF8DjpuyPg4L-100" value="name: string" style="text;align=left;verticalAlign=top;spacingLeft=4;spacingRight=4;overflow=hidden;rotatable=0;points=[[0,0.5],[1,0.5]];portConstraint=eastwest;fontSize=14;" vertex="1" parent="ssKL7-adrF8DjpuyPg4L-99">
          <mxGeometry y="26" width="160" height="26" as="geometry" />
        </mxCell>
        <mxCell id="ssKL7-adrF8DjpuyPg4L-101" value="id: string&#xa;...................." style="text;align=left;verticalAlign=top;spacingLeft=4;spacingRight=4;overflow=hidden;rotatable=0;points=[[0,0.5],[1,0.5]];portConstraint=eastwest;rounded=0;shadow=0;html=0;fontSize=14;" vertex="1" parent="ssKL7-adrF8DjpuyPg4L-99">
          <mxGeometry y="52" width="160" height="26" as="geometry" />
        </mxCell>
        <mxCell id="ssKL7-adrF8DjpuyPg4L-104" value="tracks: Track[]" style="text;align=left;verticalAlign=top;spacingLeft=4;spacingRight=4;overflow=hidden;rotatable=0;points=[[0,0.5],[1,0.5]];portConstraint=eastwest;fontSize=14;" vertex="1" parent="ssKL7-adrF8DjpuyPg4L-99">
          <mxGeometry y="78" width="160" height="26" as="geometry" />
        </mxCell>
        <mxCell id="ssKL7-adrF8DjpuyPg4L-108" value="..." style="text;align=left;verticalAlign=top;spacingLeft=4;spacingRight=4;overflow=hidden;rotatable=0;points=[[0,0.5],[1,0.5]];portConstraint=eastwest;fontSize=14;" vertex="1" parent="ssKL7-adrF8DjpuyPg4L-99">
          <mxGeometry y="104" width="160" height="26" as="geometry" />
        </mxCell>
        <mxCell id="ssKL7-adrF8DjpuyPg4L-106" value="journey" style="verticalAlign=bottom;endArrow=block;shadow=0;strokeWidth=1;fontSize=14;" edge="1" parent="1" source="ssKL7-adrF8DjpuyPg4L-76">
          <mxGeometry relative="1" as="geometry">
            <mxPoint x="530" y="320" as="sourcePoint" />
            <mxPoint x="365.00076923076927" y="319.9999999999999" as="targetPoint" />
            <Array as="points">
              <mxPoint x="425.27" y="320" />
            </Array>
          </mxGeometry>
        </mxCell>
        <mxCell id="ssKL7-adrF8DjpuyPg4L-111" style="edgeStyle=orthogonalEdgeStyle;rounded=0;orthogonalLoop=1;jettySize=auto;html=1;exitX=0;exitY=0.5;exitDx=0;exitDy=0;fontSize=14;dashed=1;" edge="1" parent="1" source="ssKL7-adrF8DjpuyPg4L-108">
          <mxGeometry relative="1" as="geometry">
            <mxPoint x="190" y="390" as="targetPoint" />
            <Array as="points">
              <mxPoint x="435" y="347" />
              <mxPoint x="435" y="390" />
            </Array>
          </mxGeometry>
        </mxCell>
        <mxCell id="ssKL7-adrF8DjpuyPg4L-112" value="&lt;span style=&quot;background-color: rgb(255, 255, 255); font-size: 14px;&quot;&gt;download journey&lt;/span&gt;&lt;br style=&quot;padding: 0px; margin: 0px; font-size: 14px;&quot;&gt;" style="text;html=1;align=center;verticalAlign=middle;resizable=0;points=[];autosize=1;strokeColor=none;fillColor=none;fontSize=14;" vertex="1" parent="1">
          <mxGeometry x="205" y="370" width="130" height="20" as="geometry" />
        </mxCell>
        <mxCell id="ssKL7-adrF8DjpuyPg4L-115" value="Joruney status ready" style="verticalAlign=bottom;endArrow=block;entryX=0;entryY=0;shadow=0;strokeWidth=1;fontSize=14;" edge="1" parent="1">
          <mxGeometry relative="1" as="geometry">
            <mxPoint x="190" y="470" as="sourcePoint" />
            <mxPoint x="354.9999999999998" y="470" as="targetPoint" />
          </mxGeometry>
        </mxCell>
        <mxCell id="ssKL7-adrF8DjpuyPg4L-116" style="edgeStyle=orthogonalEdgeStyle;rounded=0;orthogonalLoop=1;jettySize=auto;html=1;exitX=0;exitY=0.5;exitDx=0;exitDy=0;entryX=1.185;entryY=0.255;entryDx=0;entryDy=0;entryPerimeter=0;fontSize=14;" edge="1" parent="1" source="ssKL7-adrF8DjpuyPg4L-101" target="ssKL7-adrF8DjpuyPg4L-76">
          <mxGeometry relative="1" as="geometry" />
        </mxCell>
        <mxCell id="ssKL7-adrF8DjpuyPg4L-117" value="journey" style="edgeLabel;html=1;align=center;verticalAlign=middle;resizable=0;points=[];fontSize=14;" vertex="1" connectable="0" parent="ssKL7-adrF8DjpuyPg4L-116">
          <mxGeometry x="0.0966" y="-3" relative="1" as="geometry">
            <mxPoint y="-10" as="offset" />
          </mxGeometry>
        </mxCell>
        <mxCell id="ssKL7-adrF8DjpuyPg4L-126" value="" style="points=[];perimeter=orthogonalPerimeter;rounded=0;shadow=0;strokeWidth=1;fontSize=14;" vertex="1" parent="1">
          <mxGeometry x="180" y="510" width="10" height="130" as="geometry" />
        </mxCell>
        <mxCell id="ssKL7-adrF8DjpuyPg4L-127" value="run Joruney" style="verticalAlign=bottom;endArrow=block;shadow=0;strokeWidth=1;fontSize=14;" edge="1" parent="1">
          <mxGeometry relative="1" as="geometry">
            <mxPoint x="354" y="523" as="sourcePoint" />
            <mxPoint x="190" y="523" as="targetPoint" />
            <Array as="points">
              <mxPoint x="239.07" y="523" />
            </Array>
          </mxGeometry>
        </mxCell>
        <mxCell id="ssKL7-adrF8DjpuyPg4L-128" value="set Transducer&#xa;/Headphone level" style="verticalAlign=bottom;endArrow=block;shadow=0;strokeWidth=1;startArrow=none;fontSize=14;" edge="1" parent="1">
          <mxGeometry relative="1" as="geometry">
            <mxPoint x="353" y="597" as="sourcePoint" />
            <mxPoint x="191" y="597" as="targetPoint" />
            <Array as="points" />
          </mxGeometry>
        </mxCell>
        <mxCell id="ssKL7-adrF8DjpuyPg4L-130" value="joruney finished" style="verticalAlign=bottom;endArrow=none;shadow=0;strokeWidth=1;entryX=1.2;entryY=0.07;entryDx=0;entryDy=0;entryPerimeter=0;startArrow=block;startFill=1;endFill=0;fontSize=14;" edge="1" parent="1">
          <mxGeometry relative="1" as="geometry">
            <mxPoint x="353" y="628" as="sourcePoint" />
            <mxPoint x="191" y="627.6999999999999" as="targetPoint" />
            <Array as="points">
              <mxPoint x="238.07" y="628" />
            </Array>
          </mxGeometry>
        </mxCell>
        <mxCell id="ssKL7-adrF8DjpuyPg4L-132" value="like (save)" style="verticalAlign=bottom;endArrow=block;entryX=0;entryY=0;shadow=0;strokeWidth=1;fontSize=14;" edge="1" parent="1">
          <mxGeometry relative="1" as="geometry">
            <mxPoint x="366" y="537.0000000000001" as="sourcePoint" />
            <mxPoint x="535.9999999999998" y="537.0000000000001" as="targetPoint" />
          </mxGeometry>
        </mxCell>
        <mxCell id="ssKL7-adrF8DjpuyPg4L-133" value="send review" style="verticalAlign=bottom;endArrow=block;entryX=0;entryY=0;shadow=0;strokeWidth=1;fontSize=14;" edge="1" parent="1">
          <mxGeometry relative="1" as="geometry">
            <mxPoint x="366" y="659" as="sourcePoint" />
            <mxPoint x="535.9999999999998" y="659" as="targetPoint" />
            <Array as="points">
              <mxPoint x="460" y="659" />
            </Array>
          </mxGeometry>
        </mxCell>
      </root>
    </mxGraphModel>
  </diagram>
</mxfile>
